# xmcd
#
# Track frame offsets:
#	150
#	25775
#	40734
#	58062
#	77786
#	93968
#	125228
#	140651
#	156067
#	178447
#	201786
#
# Disc length: 3029 seconds
# Revision: 0
# Processed by: cddbd v1.5.2PL0 Copyright (c) Steve Scherf et al.
# Submitted via: dBpowerAMP V12.0
#
DISCID=9a0bd30b
DTITLE=Blindstone - Rare Tracks
DYEAR=2012
DGENRE=Blues-Rock
TTITLE0=The Wizard
TTITLE1=A Part Of Me
TTITLE2=Ain't Superstitious
TTITLE3=Superstition
TTITLE4=Hard Lovin' Man
TTITLE5=Blood Of The Sun
TTITLE6=Foxy Lady
TTITLE7=Star's Drug
TTITLE8=Holy Water
TTITLE9=Hoochie Coochie Man
TTITLE10=GM1
EXTD=
EXTT0=
EXTT1=
EXTT2=
EXTT3=
EXTT4=
EXTT5=
EXTT6=
EXTT7=
EXTT8=
EXTT9=
EXTT10=
PLAYORDER=
